<?xml version="1.0" encoding="utf-8"?>
<!-- Generator: Adobe Illustrator 25.3.1, SVG Export Plug-In . SVG Version: 6.00 Build 0)  -->
<svg version="1.1" id="Layer_1" xmlns="http://www.w3.org/2000/svg" xmlns:xlink="http://www.w3.org/1999/xlink" x="0px" y="0px"
	 viewBox="0 0 1920 160" style="enable-background:new 0 0 1920 160;" xml:space="preserve">
<style type="text/css">
	.st0{fill:none;stroke:#678799;stroke-width:4;stroke-linecap:round;}
	.st1{fill:none;stroke:#678799;stroke-width:3;}
	.st2{fill:none;stroke:#678799;stroke-width:3;stroke-linecap:round;}
	.st3{fill:none;stroke:#678799;stroke-width:2.9998;stroke-miterlimit:3.9996;}
	.st4{fill-rule:evenodd;clip-rule:evenodd;fill:#678799;}
</style>
<g id="Deliver---AU" transform="translate(0.000000, -0.000000)">
	<g id="Group-13" transform="translate(0.000000, 59.043243)">
		<g id="Group">
			<path id="Path-2" class="st0" d="M-4,100c69.6-29.1,138.1-43.7,205.7-43.7S337.1,65.7,405,84.6c78.2,18.8,144.3,18.8,198.4,0
				c81.1-28.3,134.6-75,202.3-64s132,63.9,203.3,63.9"/>
		</g>
	</g>
	<g id="Group-9" transform="translate(333.876668, 82.299652)">
		<polygon id="Path-3" class="st1" points="-4,44.1 8.9,19 17.1,22.1 5.1,46.7 		"/>
		<path id="Path-5" class="st1" d="M6,25.8c1.7,2.8,4.4,3.7,8.3,2.8"/>
		<line id="Path-6" class="st2" x1="14.4" y1="28.6" x2="16.1" y2="33.7"/>
	</g>
	<g id="Group-8" transform="translate(120.000000, 1.000000)">
		<rect id="Rectangle" x="28.5" y="75.5" class="st1" width="9" height="40"/>
		<path id="Path-11" class="st1" d="M22.7,72.7c9.3,3.4,16.8,2.8,22.4-1.8l0.4,0.4c8.8,3.7,15.9,2,21.4-5s3.7-13.8-5.3-20.4
			c3.1-4.5,3.1-9.7,0-15.5c-3.1-5.8-8.9-7.3-17.4-4.4c-1.5-4.7-4.6-7-9.2-7s-7.4,2.2-8.3,6.5c-6.1-2.7-12-2.2-17.7,1.6
			S2,37,5.1,45.2C-4.2,54.7-6.4,62.7-1.3,69S11.8,76.6,22.7,72.7z"/>
	</g>
	
		<g id="Group-3" transform="translate(88.709301, 73.901700) rotate(11.000000) translate(-88.709301, -73.901700) translate(56.986215, 37.304992)">
		
			<rect id="Rectangle_1_" x="34.9" y="66.3" transform="matrix(-0.9781 0.2079 -0.2079 -0.9781 93.2904 146.8035)" class="st3" width="8" height="24"/>
		<path id="Path-11_1_" class="st1" d="M28.2,66.6c7.4,0.9,12.7-0.8,16.1-5.1l0.3,0.2c7.1,1.2,12-1.2,14.8-7.2s0.3-10.7-7.3-14
			c1.5-3.8,0.6-7.6-2.6-11.3s-7.7-3.8-13.4-0.3c-1.9-3.1-4.5-4.3-7.9-3.5s-5.1,2.8-5,6.2c-4.9-1-9.1,0.4-12.6,4.2
			c-3.5,3.8-3.4,8.4,0.3,13.9c-5.2,8.5-5.4,14.7-0.6,18.5C14.9,71.8,20.9,71.3,28.2,66.6z"/>
	</g>
	<g id="Group-8_1_" transform="translate(874.000000, -0.000000)">
		<rect id="Rectangle_2_" x="28.5" y="75.5" class="st1" width="8" height="40"/>
		<path id="Path-11_2_" class="st1" d="M22.7,72.7c9.3,3.4,16.8,2.8,22.4-1.8l0.4,0.4c8.8,3.7,15.9,2,21.4-5s3.7-13.8-5.3-20.4
			c3.1-4.5,3.1-9.7,0-15.5c-3.1-5.8-8.9-7.3-17.4-4.4c-1.5-4.7-4.6-7-9.2-7s-7.4,2.2-8.3,6.5c-6.1-2.7-12-2.2-17.7,1.6
			S2,37,5.1,45.2C-4.2,54.7-6.4,62.7-1.3,69S11.8,76.6,22.7,72.7z"/>
	</g>
	
		<g id="Group-3_1_" transform="translate(966.709301, 82.901700) rotate(11.000000) translate(-966.709301, -82.901700) translate(934.986215, 46.304992)">
		
			<rect id="Rectangle_3_" x="34.9" y="66.3" transform="matrix(-0.9781 0.2079 -0.2079 -0.9781 93.2904 146.8035)" class="st3" width="8" height="24"/>
		<path id="Path-11_3_" class="st1" d="M28.2,66.6c7.4,0.9,12.7-0.8,16.1-5.1l0.3,0.2c7.1,1.2,12-1.2,14.8-7.2s0.3-10.7-7.3-14
			c1.5-3.8,0.6-7.6-2.6-11.3c-3.2-3.7-7.7-3.8-13.4-0.3c-1.9-3.1-4.5-4.3-7.9-3.5c-3.4,0.8-5.1,2.8-5,6.2c-4.9-1-9.1,0.4-12.6,4.2
			c-3.5,3.8-3.4,8.4,0.3,13.9c-5.2,8.5-5.4,14.7-0.6,18.5C14.9,71.8,20.9,71.3,28.2,66.6z"/>
	</g>
</g>
<g id="Group-30" transform="translate(0.251905, 0.000000)">
	<path id="Fill-2" class="st4" d="M282.3,102.8c-4.4,0-7.9,3.7-7.9,8.2s3.6,8.2,7.9,8.2s7.9-3.7,7.9-8.2
		C290.2,106.5,286.6,102.8,282.3,102.8 M282.3,105.8c2.8,0,5,2.2,5,5.1s-2.2,5.1-5,5.1s-5-2.2-5-5.1
		C277.3,108.1,279.5,105.8,282.3,105.8"/>
	<path id="Fill-4" class="st4" d="M309.5,67.2c-4.6,0-8.2,3.8-8.2,8.3v32.2c0,1.7,1.3,3,3,3h10.5c1.7,0,3-1.3,3-3V75.6
		C317.8,71.1,314.1,67.3,309.5,67.2 M309.5,70.2c3,0,5.3,2.5,5.3,5.4v32.2h-10.5V75.6C304.2,72.6,306.6,70.3,309.5,70.2"/>
	<g id="Group-8_2_" transform="translate(60.528730, 58.667300)">
		<g id="Clip-7">
		</g>
		<path id="Fill-6" class="st4" d="M275,52h-23.5c-0.8,0-1.5-0.7-1.5-1.5s0.7-1.5,1.5-1.5H275c0.8,0,1.5,0.7,1.5,1.5
			S275.8,52,275,52"/>
	</g>
	<path id="Fill-9" class="st4" d="M309.5,73c-1.4,0-2.6,1-2.6,2.4s1,2.6,2.4,2.6s2.6-1,2.6-2.4v-0.1C312.1,74.1,311,73,309.5,73"/>
	<path id="Fill-11" class="st4" d="M290.2,85.8H272c-0.8,0-1.5-0.7-1.5-1.5s0.7-1.5,1.5-1.5h18.2c0.8,0,1.5,0.7,1.5,1.5
		C291.7,85.1,291,85.8,290.2,85.8"/>
	<path id="Fill-13" class="st4" d="M290.2,92.6H272c-0.8,0-1.5-0.7-1.5-1.5s0.7-1.5,1.5-1.5h18.2c0.8,0,1.5,0.7,1.5,1.5
		S291,92.6,290.2,92.6"/>
	<path id="Fill-15" class="st4" d="M288.8,67.2h-15.2c-1.7,0-3,1.3-3,3.1v5.4c0,1.8,1.3,3.1,3,3.1h15.2c1.7,0,3-1.3,3-3.1v-5.4
		C291.7,68.6,290.4,67.2,288.8,67.2L288.8,67.2z M273.5,75.6h15.2v-5.4h-15.2V75.6z"/>
	<path id="Fill-17" class="st4" d="M282.3,101.2c4.5,0,8.3,2.8,9.9,6.7c0.3,0,0.5,0,0.8,0c0.8,0,1.7,0,2.5,0
		c-1.6-5.7-6.9-9.8-13.2-9.8c-5.7,0-10.6,3.5-12.7,8.5c1,0.2,2.1,0.3,3.2,0.5C274.5,103.6,278.1,101.2,282.3,101.2"/>
	<g id="Group-21">
		<g id="Clip-20">
		</g>
		<path id="Fill-19" class="st4" d="M336.1,77.6c-0.3-9.1-3.9-16.5-10.6-21.5c-5.7-4.3-13.5-7.1-22.1-7.1c-4.9,0-10.1,0.8-14.9,2.3
			c-10.8,3.3-20.1,9-27,15.3c-7.6,7-11.5,15.2-11.5,23.5c0,8.9,4.1,14.7,12.5,17.6c1.9,0.7,4,1.2,6.3,1.6c0.1-0.4,0.2-0.8,0.3-1.2
			c0.1-0.5,0.3-1.1,0.5-1.6c-10.8-1.9-16.7-6.3-16.7-16.5c0-15.9,16.2-29.8,36.5-36.1c4.5-1.4,9.3-2.1,14-2.1
			c15.2,0,29.3,8.1,29.8,25.8c0.7,25-5.9,30.1-18.7,30.1c-6.8,0-13.2,0.1-19.1,0.1c0,0.1,0.1,0.2,0.1,0.3c0.2,0.7,0.3,1.5,0.4,2.3
			c0,0.1,0,0.2,0,0.3c2.2,0,4.5,0,6.8,0c3.8,0,7.7-0.1,11.8-0.1c4.8,0,10.9-0.6,15.3-5.1C334.5,100.7,336.5,92,336.1,77.6"/>
	</g>
	<path id="Fill-22" class="st4" d="M292.1,107.9c0,0.1,0.1,0.2,0.1,0.3h3.3c0-0.1-0.1-0.2-0.1-0.3c-0.9,0-1.7,0-2.5,0
		C292.6,107.9,292.4,107.9,292.1,107.9"/>
	<path id="Fill-24" class="st4" d="M272.8,107c-1.1-0.1-2.2-0.3-3.2-0.5c-0.2,0.5-0.4,1-0.5,1.6h3.3
		C272.4,107.8,272.6,107.4,272.8,107"/>
	<path id="Fill-26" class="st4" d="M272.3,108.2H269c-0.1,0.4-0.2,0.8-0.3,1.2c1,0.2,2,0.3,3.1,0.5
		C272,109.2,272.1,108.7,272.3,108.2"/>
	<path id="Fill-28" class="st4" d="M295.5,108.2h-3.3c0.3,0.8,0.5,1.7,0.6,2.6h0.1c1,0,2,0,3,0c0-0.1,0-0.2,0-0.3
		C295.8,109.7,295.7,108.9,295.5,108.2"/>
</g>
</svg>
