<?xml version="1.0" encoding="utf-8"?>
<!-- Generator: Adobe Illustrator 25.3.1, SVG Export Plug-In . SVG Version: 6.00 Build 0)  -->
<svg version="1.1" id="Layer_1" xmlns="http://www.w3.org/2000/svg" xmlns:xlink="http://www.w3.org/1999/xlink" x="0px" y="0px"
	 viewBox="0 0 1920 160" style="enable-background:new 0 0 1920 160;" xml:space="preserve">
<style type="text/css">
	.st0{fill:none;stroke:#E7EAEC;stroke-width:4;}
	.st1{fill:none;stroke:#678799;stroke-width:4;stroke-linecap:round;stroke-linejoin:round;}
	.st2{fill-rule:evenodd;clip-rule:evenodd;fill:#678799;}
</style>
<g id="Drive-Van---AU_x2C_-UK" transform="translate(0.000000, 34.757211)">
	<g id="Group-4">
		<path id="Stroke-1" class="st0" d="M282.8-1.9c-2,0-4,0-6,0"/>
		<g id="Group-7">
			<g transform="translate(497.357143, 59.320328) scale(-1, 1) translate(-497.357143, -59.320328) ">
				<path id="Stroke-3" class="st1" d="M-1,51.2c21.9-3.8,29.6,20.7,32.4,26.5c21.7,44.8,83.9,35.9,83.9,35.9s54-4.8,73.7-57.1
					s61.6-58.9,61.6-58.9s50.3-14.8,85.9,38.4s79.3,51,79.3,51s53.7,5,124.1-46.7s156.3,16.3,156.3,16.3s72.4,58.3,170.7,18.2
					c13.7-5.6,65.7-38.7,127-0.5"/>
			</g>
		</g>
		<ellipse id="Oval" class="st2" cx="818" cy="77.7" rx="8" ry="7.5"/>
		<ellipse id="Oval_1_" class="st2" cx="996" cy="51.7" rx="8" ry="7.5"/>
		<ellipse id="Oval_2_" class="st2" cx="555" cy="85.7" rx="8" ry="7.5"/>
		<ellipse id="Oval_3_" class="st2" cx="108" cy="66.7" rx="8" ry="7.5"/>
	</g>
	<ellipse id="Oval_4_" class="st2" cx="555" cy="85.7" rx="8" ry="7.5"/>
	<g id="icon-_x2F_-location-pin" transform="translate(984.000000, 9.525011)">
		<path id="Fill-1" class="st2" d="M11.7-0.5c-3.9,0-7.1,2.8-7.1,6.3c0,5.3,4.8,12.1,7.1,15.2c2.4-3.1,7.1-9.9,7.1-15.2
			C18.9,2.3,15.7-0.5,11.7-0.5 M11.7,25.7c-0.5,0-1-0.2-1.3-0.6C10,24.7,1,14.2,1,5.8C1,0.2,5.8-4.3,11.7-4.3S22.4,0.2,22.4,5.8
			c0,8.5-9,18.9-9.4,19.3C12.7,25.5,12.2,25.7,11.7,25.7"/>
		<path id="Fill-3" class="st2" d="M11.7,5.1c-1,0-1.8,0.8-1.8,1.9s0.8,1.9,1.8,1.9s1.8-0.8,1.8-1.9S12.7,5.1,11.7,5.1 M11.7,10.7
			c-2,0-3.6-1.7-3.6-3.8s1.6-3.7,3.6-3.7s3.6,1.7,3.6,3.7S13.7,10.7,11.7,10.7"/>
	</g>
</g>
<path id="Fill-1_1_" class="st2" d="M345.3,57.2l-3.3,1.5c-0.6,0.3-1.4,0-1.7-0.6s0-1.4,0.6-1.7l3.3-1.5c0.6-0.3,1.4,0,1.7,0.6
	C346.2,56,345.9,56.9,345.3,57.2"/>
<g id="Group-5" transform="translate(0.000111, 7.997690)">
	<g id="Clip-4">
	</g>
	<path id="Fill-3_1_" class="st2" d="M293.4,73.4l-4.6,2.2c-2.4,1.1-5.5,0.1-6.6-2.3l-14.8-31.7c-1.1-2.4,0.1-5.3,2.5-6.5l58.6-27.3
		c10.5-5,32.4-1.9,35.7,5.2l8.4,18c1.2,2.5,0.4,5.3-2,6.4l-7.9,3.7c-0.6-1-0.6-1-0.8-1.2c-0.4-0.6,0.4-1.6,1.1-1.9l6.4-3
		c1.5-0.7,0.9-2.4,0.7-2.8l-8.4-18c-2.2-4.8-22-8.7-32.1-4L271,37.5c-1.1,0.5-1.8,1.9-1.3,2.9l14.8,31.7c0.5,1.1,2,1.5,3.1,1
		l4.6-2.2c0.6-0.3,1.2,0.1,1.5,0.8S294.1,73.1,293.4,73.4"/>
</g>
<path id="Fill-6" class="st2" d="M344.4,57.6l-32.7,15.3c-0.6,0.3-1.3,0-1.7-0.8c-0.3-0.6-0.1-1.4,0.5-1.7l32.7-15.3
	c0.6-0.3,1.4,0,1.7,0.6C345.3,56.4,345.1,57.3,344.4,57.6"/>
<g id="Group-10" transform="translate(0.000000, 43.123301)">
	<g id="Clip-9">
	</g>
	<path id="Fill-8" class="st2" d="M286.9,33.7l-4.1,1.9c-0.7,0.3-1.7,0-2-0.6s0.2-1.5,0.8-1.8l4.1-1.9c0.6-0.3,1.4,0,1.7,0.6
		C287.8,32.5,287.5,33.4,286.9,33.7"/>
</g>
<path id="Fill-11" class="st2" d="M297.5,37.6l-19.4,9c-1.4,0.6-1.9,2.2-1.3,3.6l4.3,9.2c0.6,1.4,2.2,1.9,3.6,1.3l19.5-9.1
	c1.4-0.6,1.9-2.2,1.3-3.6l-4.3-9.2C300.4,37.5,298.8,36.9,297.5,37.6L297.5,37.6z M283.5,58.1l19.4-9l-4.3-9.2l-19.4,9L283.5,58.1z"
	/>
<path id="Fill-13" class="st2" d="M327,23.8l-19.5,9.1c-1.4,0.6-1.9,2.2-1.3,3.6l4.3,9.2c0.6,1.4,2.2,1.9,3.6,1.3l19.5-9.1
	c1.4-0.6,1.9-2.2,1.3-3.6l-4.3-9.2C330,23.7,328.4,23.2,327,23.8L327,23.8z M312.9,44.4l19.5-9.1l-4.3-9.2l-19.5,9.1L312.9,44.4z"/>
<path id="Fill-15" class="st2" d="M337.5,19.9c-1.4,0.6-1.9,2.2-1.3,3.6l3.8,8.2c0.6,1.4,2.2,1.9,3.6,1.3l11.6-5.4
	c1.4-0.6,1.9-2.2,1.3-3.6s-2.3-3-9.2-4C345.7,20,339.6,18.9,337.5,19.9 M338.6,22.4c1.8-0.8,14.4,0.6,15.4,2.8l-11.6,5.4L338.6,22.4
	"/>
<path id="Fill-17" class="st2" d="M346.4,56.7c-1.7-4.4,0.3-9.4,4.6-11.4c4.4-2,9.4-0.3,11.7,3.8l2.4-1.1c-2.8-5.4-9.6-7.8-15.3-5.1
	s-8.3,9.3-5.9,15C344,57.8,346.4,56.7,346.4,56.7z"/>
<path id="Fill-19" class="st2" d="M352.9,49.2c-2.2,1-3.2,3.6-2.2,5.8s3.6,3.1,5.8,2c2.2-1,3.2-3.6,2.2-5.8
	C357.7,49.1,355.2,48.2,352.9,49.2 M357.7,59.5c-3.5,1.6-7.7,0.2-9.4-3.3c-1.6-3.5-0.1-7.7,3.5-9.3s7.7-0.2,9.4,3.3
	C362.8,53.7,361.2,57.8,357.7,59.5"/>
<path id="Fill-21" class="st2" d="M294.3,81c-1.7-4.4,0.3-9.4,4.6-11.4s9.4-0.3,11.7,3.8l2.4-1.1c-2.8-5.4-9.6-7.8-15.3-5.1
	c-5.7,2.7-8.3,9.3-5.9,15L294.3,81z"/>
<path id="Fill-23" class="st2" d="M300.8,73.5c-2.2,1-3.2,3.6-2.2,5.8s3.6,3.1,5.8,2c2.2-1,3.2-3.6,2.2-5.8
	C305.6,73.4,303.1,72.5,300.8,73.5 M305.6,83.8c-3.5,1.6-7.7,0.2-9.4-3.3c-1.6-3.5-0.1-7.7,3.5-9.3c3.5-1.6,7.7-0.2,9.4,3.3
	C310.7,78,309.1,82.1,305.6,83.8"/>
<g id="Group-27" transform="translate(8.209996, 0.000000)">
	<g id="Clip-26">
	</g>
	<path id="Fill-25" class="st2" d="M319.9,17.8c-0.6,0.3-1.4,0-1.7-0.6l-2.6-5.5l-51,23.8l2.6,5.5c0.3,0.6,0,1.4-0.6,1.7
		s-1.4,0-1.7-0.6l-2.8-6.1c-0.3-0.5-0.3-1.8,0.5-2.1L315.9,9c0.6-0.3,1.4,0,1.7,0.6l3,6.4C320.8,16.7,320.5,17.5,319.9,17.8"/>
</g>
</svg>
